<svg xmlns="http://www.w3.org/2000/svg" width="1200" height="630" viewBox="0 0 1200 630">
  <defs>
    <linearGradient id="bgGrad" x1="0%" y1="0%" x2="100%" y2="100%">
      <stop offset="0%" style="stop-color:#18181b"/>
      <stop offset="100%" style="stop-color:#09090b"/>
    </linearGradient>
    <linearGradient id="textGrad" x1="0%" y1="0%" x2="100%" y2="0%">
      <stop offset="0%" style="stop-color:#a78bfa"/>
      <stop offset="50%" style="stop-color:#7c3aed"/>
      <stop offset="100%" style="stop-color:#6d28d9"/>
    </linearGradient>
    <linearGradient id="accentGrad" x1="0%" y1="0%" x2="100%" y2="0%">
      <stop offset="0%" style="stop-color:#fbbf24"/>
      <stop offset="100%" style="stop-color:#f59e0b"/>
    </linearGradient>
    <radialGradient id="purpleGlow" cx="20%" cy="30%" r="50%">
      <stop offset="0%" style="stop-color:#7c3aed;stop-opacity:0.15"/>
      <stop offset="100%" style="stop-color:#7c3aed;stop-opacity:0"/>
    </radialGradient>
    <radialGradient id="goldGlow" cx="80%" cy="70%" r="40%">
      <stop offset="0%" style="stop-color:#f59e0b;stop-opacity:0.1"/>
      <stop offset="100%" style="stop-color:#f59e0b;stop-opacity:0"/>
    </radialGradient>
  </defs>
  <rect width="1200" height="630" fill="url(#bgGrad)"/>
  <rect width="1200" height="630" fill="url(#purpleGlow)"/>
  <rect width="1200" height="630" fill="url(#goldGlow)"/>
  <path d="M500.28 306L500.28 306Q480.12 306 463.20 299.28Q446.28 292.56 433.68 280.56Q421.08 268.56 414.12 252.24Q407.16 235.92 407.16 216.96L407.16 216.96Q407.16 197.76 414 181.68Q420.84 165.60 433.32 153.60Q445.80 141.60 462.72 135Q479.64 128.40 499.80 128.40L499.80 128.40Q519.96 128.40 536.88 135Q553.80 141.60 566.28 153.60Q578.76 165.60 585.60 181.80Q592.44 198 592.44 217.20L592.44 217.20Q592.44 236.16 585.60 252.36Q578.76 268.56 566.28 280.68Q553.80 292.80 537 299.40Q520.20 306 500.28 306ZM499.80 263.76L499.80 263.76Q513.24 263.76 523.08 258Q532.92 252.24 538.20 241.68Q543.48 231.12 543.48 216.96L543.48 216.96Q543.48 206.40 540.48 197.88Q537.48 189.36 531.72 183.24Q525.96 177.12 517.92 173.88Q509.88 170.64 499.80 170.64L499.80 170.64Q486.36 170.64 476.52 176.28Q466.68 181.92 461.40 192.36Q456.12 202.80 456.12 216.96L456.12 216.96Q456.12 227.76 459.12 236.40Q462.12 245.04 467.88 251.16Q473.64 257.28 481.68 260.52Q489.72 263.76 499.80 263.76ZM684.12 302.64L643.80 302.64L597.24 184.56L647.16 184.56L674.52 285.12L653.88 285.12L680.76 184.56L730.44 184.56L684.12 302.64ZM664.20 353.04L618.12 353.04L652.44 275.52L684.12 302.64L664.20 353.04ZM784.20 234.72L749.40 234.72L741 126.96L792.60 126.96L784.20 234.72ZM766.92 305.52L766.92 305.52Q755.64 305.52 748.20 297.84Q740.76 290.16 740.76 279.12L740.76 279.12Q740.76 267.84 748.20 260.16Q755.64 252.48 766.92 252.48L766.92 252.48Q778.20 252.48 785.52 260.16Q792.84 267.84 792.84 279.12L792.84 279.12Q792.84 290.16 785.52 297.84Q778.20 305.52 766.92 305.52Z" fill="url(#textGrad)" filter="url(#glow)"/>
  <path d="M449.45 480L443.93 480L443.93 447.36L449.45 447.36L449.45 480ZM460.39 451.44L432.98 451.44L432.98 446.40L460.39 446.40L460.39 451.44ZM469.22 480.48L469.22 480.48Q465.77 480.48 463.01 478.92Q460.25 477.36 458.64 474.62Q457.03 471.89 457.03 468.48L457.03 468.48Q457.03 465.07 458.62 462.36Q460.20 459.65 462.91 458.06Q465.62 456.48 468.94 456.48L468.94 456.48Q472.15 456.48 474.62 457.97Q477.10 459.46 478.51 462.05Q479.93 464.64 479.93 467.95L479.93 467.95Q479.93 468.53 479.86 469.13Q479.78 469.73 479.64 470.45L479.64 470.45L460.73 470.45L460.73 466.13L476.90 466.13L474.94 467.86Q474.84 465.74 474.12 464.30Q473.40 462.86 472.08 462.10Q470.76 461.33 468.84 461.33L468.84 461.33Q466.82 461.33 465.34 462.19Q463.85 463.06 463.03 464.62Q462.22 466.18 462.22 468.34L462.22 468.34Q462.22 470.50 463.08 472.13Q463.94 473.76 465.53 474.65Q467.11 475.54 469.18 475.54L469.18 475.54Q470.95 475.54 472.46 474.91Q473.98 474.29 475.03 473.09L475.03 473.09L478.39 476.50Q476.71 478.46 474.31 479.47Q471.91 480.48 469.22 480.48ZM489.43 480L484.15 480L484.15 445.44L489.43 445.44L489.43 480ZM500.57 480L495.29 480L495.29 445.44L500.57 445.44L500.57 480ZM526.73 480.24L523.46 480.24L513.62 456.96L519.43 456.96L526.15 474.05L524.47 474.05L531.58 456.96L537.43 456.96L526.73 480.24ZM522.46 489.60L516.60 489.60L523.75 474.86L526.73 480.24L522.46 489.60ZM550.30 480.48L550.30 480.48Q546.94 480.48 544.20 478.87Q541.46 477.26 539.86 474.53Q538.25 471.79 538.25 468.43L538.25 468.43Q538.25 465.07 539.86 462.38Q541.46 459.70 544.20 458.09Q546.94 456.48 550.30 456.48L550.30 456.48Q553.70 456.48 556.44 458.06Q559.18 459.65 560.78 462.36Q562.39 465.07 562.39 468.43L562.39 468.43Q562.39 471.79 560.78 474.53Q559.18 477.26 556.44 478.87Q553.70 480.48 550.30 480.48ZM550.30 475.39L550.30 475.39Q552.26 475.39 553.78 474.50Q555.29 473.62 556.13 472.03Q556.97 470.45 556.97 468.43L556.97 468.43Q556.97 466.42 556.10 464.88Q555.24 463.34 553.75 462.46Q552.26 461.57 550.30 461.57L550.30 461.57Q548.38 461.57 546.86 462.46Q545.35 463.34 544.51 464.88Q543.67 466.42 543.67 468.43L543.67 468.43Q543.67 470.45 544.51 472.03Q545.35 473.62 546.86 474.50Q548.38 475.39 550.30 475.39ZM576.22 480.48L576.22 480.48Q573.29 480.48 571.01 479.18Q568.73 477.89 567.46 475.61Q566.18 473.33 566.18 470.35L566.18 470.35L566.18 456.96L571.46 456.96L571.46 470.11Q571.46 471.79 572.02 472.97Q572.57 474.14 573.65 474.77Q574.73 475.39 576.22 475.39L576.22 475.39Q578.52 475.39 579.74 474.02Q580.97 472.66 580.97 470.11L580.97 470.11L580.97 456.96L586.25 456.96L586.25 470.35Q586.25 473.38 584.98 475.66Q583.70 477.94 581.45 479.21Q579.19 480.48 576.22 480.48ZM596.86 480L591.58 480L591.58 456.96L596.86 456.96L596.86 480ZM596.86 467.18L596.86 467.18L595.03 466.27Q595.03 461.90 596.98 459.19Q598.92 456.48 602.86 456.48L602.86 456.48Q604.58 456.48 605.98 457.10Q607.37 457.73 608.57 459.12L608.57 459.12L605.11 462.67Q604.49 462 603.72 461.71Q602.95 461.42 601.94 461.42L601.94 461.42Q599.74 461.42 598.30 462.82Q596.86 464.21 596.86 467.18ZM630.02 480L624.74 480L624.74 453.94Q624.74 451.30 625.92 449.28Q627.10 447.26 629.18 446.11Q631.27 444.96 634.01 444.96L634.01 444.96Q636.12 444.96 637.61 445.68Q639.10 446.40 640.39 447.74L640.39 447.74L636.98 451.15Q636.41 450.58 635.74 450.24Q635.06 449.90 634.01 449.90L634.01 449.90Q632.09 449.90 631.06 450.94Q630.02 451.97 630.02 453.89L630.02 453.89L630.02 480ZM636.98 461.76L619.22 461.76L619.22 456.96L636.98 456.96L636.98 461.76ZM645.34 480L640.06 480L640.06 456.96L645.34 456.96L645.34 480ZM645.34 467.18L645.34 467.18L643.51 466.27Q643.51 461.90 645.46 459.19Q647.40 456.48 651.34 456.48L651.34 456.48Q653.06 456.48 654.46 457.10Q655.85 457.73 657.05 459.12L657.05 459.12L653.59 462.67Q652.97 462 652.20 461.71Q651.43 461.42 650.42 461.42L650.42 461.42Q648.22 461.42 646.78 462.82Q645.34 464.21 645.34 467.18ZM664.92 480L659.64 480L659.64 456.96L664.92 456.96L664.92 480ZM662.28 452.74L662.28 452.74Q660.94 452.74 660.05 451.82Q659.16 450.91 659.16 449.57L659.16 449.57Q659.16 448.22 660.05 447.31Q660.94 446.40 662.28 446.40L662.28 446.40Q663.67 446.40 664.54 447.31Q665.40 448.22 665.40 449.57L665.40 449.57Q665.40 450.91 664.54 451.82Q663.67 452.74 662.28 452.74ZM681.53 480.48L681.53 480.48Q678.07 480.48 675.31 478.92Q672.55 477.36 670.94 474.62Q669.34 471.89 669.34 468.48L669.34 468.48Q669.34 465.07 670.92 462.36Q672.50 459.65 675.22 458.06Q677.93 456.48 681.24 456.48L681.24 456.48Q684.46 456.48 686.93 457.97Q689.40 459.46 690.82 462.05Q692.23 464.64 692.23 467.95L692.23 467.95Q692.23 468.53 692.16 469.13Q692.09 469.73 691.94 470.45L691.94 470.45L673.03 470.45L673.03 466.13L689.21 466.13L687.24 467.86Q687.14 465.74 686.42 464.30Q685.70 462.86 684.38 462.10Q683.06 461.33 681.14 461.33L681.14 461.33Q679.13 461.33 677.64 462.19Q676.15 463.06 675.34 464.62Q674.52 466.18 674.52 468.34L674.52 468.34Q674.52 470.50 675.38 472.13Q676.25 473.76 677.83 474.65Q679.42 475.54 681.48 475.54L681.48 475.54Q683.26 475.54 684.77 474.91Q686.28 474.29 687.34 473.09L687.34 473.09L690.70 476.50Q689.02 478.46 686.62 479.47Q684.22 480.48 681.53 480.48ZM717.53 480L712.25 480L712.25 466.70Q712.25 464.40 710.78 462.91Q709.32 461.42 707.02 461.42L707.02 461.42Q705.48 461.42 704.28 462.10Q703.08 462.77 702.41 463.97Q701.74 465.17 701.74 466.70L701.74 466.70L699.67 465.55Q699.67 462.91 700.82 460.87Q701.98 458.83 704.02 457.66Q706.06 456.48 708.60 456.48L708.60 456.48Q711.19 456.48 713.21 457.80Q715.22 459.12 716.38 461.21Q717.53 463.30 717.53 465.55L717.53 465.55L717.53 480ZM701.74 480L696.46 480L696.46 456.96L701.74 456.96L701.74 480ZM732.55 480.48L732.55 480.48Q729.43 480.48 726.91 478.90Q724.39 477.31 722.93 474.60Q721.46 471.89 721.46 468.53L721.46 468.53Q721.46 465.12 722.93 462.41Q724.39 459.70 726.91 458.09Q729.43 456.48 732.55 456.48L732.55 456.48Q735.19 456.48 737.23 457.61Q739.27 458.74 740.47 460.70Q741.67 462.67 741.67 465.17L741.67 465.17L741.67 471.79Q741.67 474.29 740.50 476.26Q739.32 478.22 737.26 479.35Q735.19 480.48 732.55 480.48ZM733.42 475.49L733.42 475.49Q735.38 475.49 736.85 474.60Q738.31 473.71 739.13 472.13Q739.94 470.54 739.94 468.48L739.94 468.48Q739.94 466.42 739.13 464.83Q738.31 463.25 736.85 462.36Q735.38 461.47 733.46 461.47L733.46 461.47Q731.50 461.47 730.03 462.36Q728.57 463.25 727.73 464.83Q726.89 466.42 726.89 468.48L726.89 468.48Q726.89 470.54 727.73 472.13Q728.57 473.71 730.03 474.60Q731.50 475.49 733.42 475.49ZM744.89 445.44L744.89 480L739.61 480L739.61 473.81L740.52 468.19L739.61 462.62L739.61 445.44L744.89 445.44ZM758.28 480.48L758.28 480.48Q756.36 480.48 754.58 479.98Q752.81 479.47 751.32 478.54Q749.83 477.60 748.73 476.26L748.73 476.26L752.09 472.90Q753.29 474.29 754.85 474.98Q756.41 475.68 758.38 475.68L758.38 475.68Q760.15 475.68 761.06 475.15Q761.98 474.62 761.98 473.62L761.98 473.62Q761.98 472.56 761.11 471.98Q760.25 471.41 758.88 471Q757.51 470.59 756 470.16Q754.49 469.73 753.12 468.98Q751.75 468.24 750.89 466.94Q750.02 465.65 750.02 463.58L750.02 463.58Q750.02 461.38 751.06 459.79Q752.09 458.21 753.98 457.34Q755.88 456.48 758.52 456.48L758.52 456.48Q761.30 456.48 763.44 457.46Q765.58 458.45 767.02 460.42L767.02 460.42L763.66 463.78Q762.65 462.53 761.35 461.90Q760.06 461.28 758.38 461.28L758.38 461.28Q756.79 461.28 755.93 461.76Q755.06 462.24 755.06 463.15L755.06 463.15Q755.06 464.11 755.93 464.64Q756.79 465.17 758.16 465.55Q759.53 465.94 761.04 466.39Q762.55 466.85 763.92 467.64Q765.29 468.43 766.15 469.75Q767.02 471.07 767.02 473.18L767.02 473.18Q767.02 476.54 764.66 478.51Q762.31 480.48 758.28 480.48Z" fill="#9ca3af"/>
</svg>
