<svg xmlns="http://www.w3.org/2000/svg" width="512" height="512" viewBox="0 0 512 512">
  <defs>
    <linearGradient id="bgGrad" x1="0%" y1="0%" x2="100%" y2="100%">
      <stop offset="0%" style="stop-color:#8b5cf6"/>
      <stop offset="50%" style="stop-color:#7c3aed"/>
      <stop offset="100%" style="stop-color:#6d28d9"/>
    </linearGradient>
  </defs>
  <rect width="512" height="512" fill="url(#bgGrad)" rx="96"/>
  <path transform="translate(0,30)" d="M170.35 337.60L170.35 337.60Q145.15 337.60 124 329.20Q102.85 320.80 87.10 305.80Q71.35 290.80 62.65 270.40Q53.95 250 53.95 226.30L53.95 226.30Q53.95 202.30 62.50 182.20Q71.05 162.10 86.65 147.10Q102.25 132.10 123.40 123.85Q144.55 115.60 169.75 115.60L169.75 115.60Q194.95 115.60 216.10 123.85Q237.25 132.10 252.85 147.10Q268.45 162.10 277 182.35Q285.55 202.60 285.55 226.60L285.55 226.60Q285.55 250.30 277 270.55Q268.45 290.80 252.85 305.95Q237.25 321.10 216.25 329.35Q195.25 337.60 170.35 337.60ZM169.75 284.80L169.75 284.80Q186.55 284.80 198.85 277.60Q211.15 270.40 217.75 257.20Q224.35 244 224.35 226.30L224.35 226.30Q224.35 213.10 220.60 202.45Q216.85 191.80 209.65 184.15Q202.45 176.50 192.40 172.45Q182.35 168.40 169.75 168.40L169.75 168.40Q152.95 168.40 140.65 175.45Q128.35 182.50 121.75 195.55Q115.15 208.60 115.15 226.30L115.15 226.30Q115.15 239.80 118.90 250.60Q122.65 261.40 129.85 269.05Q137.05 276.70 147.10 280.75Q157.15 284.80 169.75 284.80ZM400.15 333.40L349.75 333.40L291.55 185.80L353.95 185.80L388.15 311.50L362.35 311.50L395.95 185.80L458.05 185.80L400.15 333.40ZM375.25 396.40L317.65 396.40L360.55 299.50L400.15 333.40L375.25 396.40Z" fill="#ffffff" filter="url(#glow)"/>
</svg>
